<svg width="24" height="124" viewBox="0 0 24 124" fill="none" xmlns="http://www.w3.org/2000/svg">
<mask id="mask0_260_938" style="mask-type:alpha" maskUnits="userSpaceOnUse" x="0" y="117" width="8" height="7">
<path fill-rule="evenodd" clip-rule="evenodd" d="M0 124L-2.84782e-07 117.485L7.1323 117.485L7.1323 124L0 124Z" fill="white"/>
</mask>
<g mask="url(#mask0_260_938)">
<path fill-rule="evenodd" clip-rule="evenodd" d="M-6.10352e-05 124L-6.10877e-05 122.798C-6.10934e-05 122.668 0.0325748 122.562 0.0978467 122.479C0.163119 122.397 0.249371 122.338 0.357069 122.303L4.17594 121.057C4.34192 121 4.52328 120.943 4.71909 120.886C4.91491 120.829 5.12052 120.775 5.33591 120.725C5.12052 120.683 4.91491 120.636 4.71909 120.581C4.52328 120.527 4.34192 120.473 4.17594 120.42L0.357069 119.182C0.265688 119.153 0.183632 119.095 0.109968 119.01C0.0367707 118.924 -6.12616e-05 118.82 -6.1267e-05 118.696L-6.13199e-05 117.485L7.13229 120.066L7.13229 121.419L-6.10352e-05 124Z" fill="#292929"/>
</g>
<mask id="mask1_260_938" style="mask-type:alpha" maskUnits="userSpaceOnUse" x="0" y="100" width="8" height="7">
<path fill-rule="evenodd" clip-rule="evenodd" d="M0 106.711L-2.84782e-07 100.196L7.13268 100.196L7.13268 106.711L0 106.711Z" fill="white"/>
</mask>
<g mask="url(#mask1_260_938)">
<path fill-rule="evenodd" clip-rule="evenodd" d="M4.40566 104.333L4.40566 102.574L2.45263 103.166C2.32861 103.204 2.18222 103.249 2.01437 103.301C1.84607 103.353 1.66424 103.403 1.46842 103.454C1.6675 103.5 1.85213 103.549 2.02183 103.599C2.19107 103.65 2.3384 103.696 2.46242 103.741L4.40566 104.333ZM7.13257 100.196L7.13257 101.354C7.13257 101.483 7.099 101.59 7.03187 101.674C6.9652 101.758 6.87941 101.816 6.77498 101.849L5.53155 102.229L5.53155 104.677L6.77498 105.058C6.86636 105.087 6.94888 105.145 7.02208 105.23C7.09574 105.315 7.13257 105.42 7.13257 105.544L7.13257 106.711L-0.00024425 104.218L-0.000244316 102.689L7.13257 100.196Z" fill="#292929"/>
</g>
<mask id="mask2_260_938" style="mask-type:alpha" maskUnits="userSpaceOnUse" x="0" y="0" width="24" height="124">
<path fill-rule="evenodd" clip-rule="evenodd" d="M24 124L24 0.756751L-5.38713e-06 0.756752L0 124L24 124Z" fill="white"/>
</mask>
<g mask="url(#mask2_260_938)">
<path fill-rule="evenodd" clip-rule="evenodd" d="M7.13235 89.6606L7.13235 88.1578L-6.56905e-08 88.1578L0 89.6606L7.13235 89.6606Z" fill="#292929"/>
<path fill-rule="evenodd" clip-rule="evenodd" d="M1.04765 69.529C1.10313 69.5556 1.13064 69.5935 1.13064 69.644C1.13064 69.6824 1.1008 69.732 1.04019 69.7923C0.979583 69.8531 0.912913 69.935 0.839715 70.0383C0.766051 70.1422 0.698448 70.2713 0.63644 70.4265C0.574432 70.5814 0.543194 70.7731 0.543194 71.0004C0.543194 71.2282 0.57956 71.4289 0.650893 71.6015C0.722692 71.7745 0.8206 71.9191 0.944616 72.036C1.06863 72.1529 1.2127 72.2413 1.37541 72.3021C1.53859 72.363 1.71016 72.3934 1.88966 72.3934C2.12464 72.3934 2.31906 72.348 2.47198 72.2582C2.62537 72.1684 2.75591 72.0496 2.86408 71.9018C2.97131 71.754 3.06176 71.5865 3.13542 71.3994C3.20908 71.2119 3.28182 71.0196 3.35315 70.8218C3.42495 70.6239 3.50421 70.4317 3.59092 70.2441C3.67718 70.0566 3.78581 69.8896 3.91635 69.7418C4.0469 69.5944 4.20728 69.4756 4.39843 69.3854C4.58958 69.2951 4.82689 69.2502 5.11083 69.2502C5.40129 69.2502 5.6745 69.2951 5.93092 69.3854C6.18688 69.4752 6.40974 69.6057 6.59903 69.7764C6.78831 69.9476 6.93751 70.1567 7.04707 70.4041C7.15617 70.6515 7.21072 70.9345 7.21072 71.2526C7.21072 71.6651 7.13006 72.0206 6.96874 72.318C6.80696 72.6155 6.58597 72.8765 6.3053 73.1001L6.0899 72.9766C6.04095 72.9411 6.01624 72.8999 6.01624 72.8527C6.01624 72.826 6.03582 72.7923 6.07499 72.7512C6.11415 72.7095 6.16264 72.6595 6.21952 72.6006C6.2764 72.5416 6.33887 72.4705 6.40554 72.3882C6.47268 72.3054 6.53469 72.2095 6.59157 72.1006C6.64891 71.9911 6.69693 71.8658 6.7361 71.724C6.77526 71.5823 6.79484 71.4214 6.79484 71.2418C6.79484 70.9939 6.75288 70.7727 6.66989 70.5776C6.58644 70.383 6.47314 70.2184 6.32955 70.0842C6.18595 69.9499 6.01577 69.8475 5.81809 69.7764C5.62088 69.7058 5.40921 69.6702 5.18402 69.6702C4.93926 69.6702 4.73784 69.7151 4.57979 69.8054C4.42128 69.8952 4.28933 70.014 4.18303 70.1618C4.0772 70.3091 3.98815 70.4766 3.91635 70.6641C3.84455 70.8512 3.77415 71.0439 3.70562 71.2418C3.63708 71.4392 3.56062 71.6319 3.47577 71.819C3.39091 72.0065 3.28228 72.174 3.14987 72.3218C3.01793 72.4691 2.85335 72.5879 2.65567 72.6777C2.45799 72.768 2.21089 72.8129 1.9139 72.8129C1.68219 72.8129 1.45887 72.7732 1.24347 72.6936C1.02807 72.6137 0.83785 72.4972 0.672806 72.3438C0.508227 72.1904 0.376285 72.0009 0.276512 71.775C0.177206 71.5491 0.127319 71.2918 0.127319 71.0023C0.127319 70.6782 0.184199 70.3868 0.298425 70.1286C0.412651 69.8704 0.587486 69.6351 0.822465 69.4228L1.04765 69.529Z" fill="#292929"/>
<path fill-rule="evenodd" clip-rule="evenodd" d="M7.13249 50.8917L7.13249 51.3468L3.81342 51.3468L3.81342 55.2632L7.13249 55.2632L7.13249 55.7183L0.20575 55.7183L0.205749 55.2632L3.43624 55.2632L3.43624 51.3468L0.205749 51.3468L0.205749 50.8917L7.13249 50.8917Z" fill="#292929"/>
<path fill-rule="evenodd" clip-rule="evenodd" d="M4.61601 38.3586L4.61601 35.5564L1.11604 36.8338C1.06056 36.8544 0.997614 36.8749 0.927214 36.8955C0.85728 36.9161 0.782683 36.9367 0.704357 36.9573C0.782683 36.9778 0.85728 36.9989 0.927214 37.0195C0.997614 37.04 1.06195 37.0606 1.1207 37.0812L4.61601 38.3586ZM7.13249 34.1729L7.13249 34.5218C7.13249 34.5635 7.12037 34.5971 7.09566 34.6238C7.07142 34.65 7.03925 34.671 7.00008 34.6855L4.98831 35.4236L4.98831 38.4957L7.00008 39.2296C7.03598 39.2412 7.06722 39.2618 7.09333 39.2913C7.11944 39.3208 7.13249 39.3563 7.13249 39.3975L7.13249 39.7422L0.205749 37.1828L0.205749 36.7319L7.13249 34.1729Z" fill="#292929"/>
<path fill-rule="evenodd" clip-rule="evenodd" d="M6.70646 21.5909L6.70646 18.625L7.13259 18.625L7.13259 22.0417L0.205383 22.0417L0.205383 21.5909L6.70646 21.5909Z" fill="#292929"/>
<path fill-rule="evenodd" clip-rule="evenodd" d="M7.13231 5.04031L7.13231 4.58473L0.205566 4.58473L0.205566 5.04031L7.13231 5.04031Z" fill="#292929"/>
<path fill-rule="evenodd" clip-rule="evenodd" d="M20.4115 122.488L20.4115 121.401C20.4115 121.124 20.3747 120.876 20.3015 120.656C20.2278 120.437 20.1225 120.251 19.9854 120.099C19.8483 119.948 19.6838 119.832 19.4912 119.752C19.2986 119.673 19.0814 119.633 18.8399 119.633C18.3475 119.633 17.982 119.779 17.7433 120.071C17.5055 120.363 17.3862 120.787 17.3862 121.343L17.3862 122.488L20.4115 122.488ZM20.7836 122.489L23.9167 122.489L23.9167 122.939L16.9899 122.939L16.9899 121.344C16.9899 120.622 17.1438 120.083 17.4524 119.726C17.7606 119.37 18.2138 119.191 18.8105 119.191C19.0754 119.191 19.3169 119.233 19.5355 119.315C19.7542 119.398 19.9458 119.516 20.1104 119.671C20.2754 119.826 20.4111 120.012 20.5169 120.23C20.6232 120.448 20.6922 120.694 20.7249 120.968C20.7738 120.897 20.8391 120.834 20.9207 120.778L23.9167 118.626L23.9167 119.019C23.9167 119.066 23.9069 119.107 23.8873 119.141C23.8677 119.174 23.8351 119.207 23.7894 119.24L20.9794 121.242C20.9076 121.292 20.8573 121.346 20.8279 121.403C20.7985 121.461 20.7836 121.55 20.7836 121.671L20.7836 122.489Z" fill="#292929"/>
<path fill-rule="evenodd" clip-rule="evenodd" d="M21.4005 105.27L21.4005 102.468L17.9005 103.745C17.8451 103.766 17.7821 103.787 17.7117 103.807C17.6418 103.828 17.5672 103.848 17.4889 103.869C17.5672 103.889 17.6418 103.91 17.7117 103.931C17.7821 103.952 17.8465 103.972 17.9052 103.993L21.4005 105.27ZM23.9167 101.084L23.9167 101.433C23.9167 101.475 23.9046 101.509 23.8798 101.535C23.8556 101.561 23.8234 101.582 23.7843 101.597L21.7725 102.335L21.7725 105.407L23.7843 106.141C23.8202 106.153 23.8514 106.173 23.8775 106.203C23.9036 106.232 23.9167 106.268 23.9167 106.309L23.9167 106.654L16.9899 104.094L16.9899 103.643L23.9167 101.084Z" fill="#292929"/>
<path fill-rule="evenodd" clip-rule="evenodd" d="M21.606 87.2381C21.9944 87.2381 22.3371 87.2816 22.6341 87.3686C22.9311 87.4556 23.1805 87.5791 23.3833 87.74C23.5857 87.9004 23.7381 88.0964 23.8407 88.3279C23.9437 88.559 23.995 88.8191 23.995 89.1081C23.995 89.2405 23.9838 89.3747 23.961 89.5099C23.9377 89.6456 23.9018 89.7859 23.8528 89.9299C23.8076 89.9243 23.7619 89.9187 23.7157 89.9145C23.6705 89.9098 23.6248 89.9065 23.5787 89.9033C23.5493 89.8977 23.5236 89.8864 23.5003 89.8701C23.478 89.8542 23.4663 89.8256 23.4663 89.784C23.4663 89.7578 23.4719 89.726 23.4835 89.689C23.4947 89.6526 23.5073 89.6081 23.5199 89.5567C23.5334 89.5052 23.5456 89.4458 23.5567 89.3799C23.5684 89.3135 23.574 89.2358 23.574 89.1479C23.574 88.9238 23.5348 88.7218 23.4565 88.5422C23.3782 88.3626 23.2584 88.2091 23.0966 88.0824C22.9353 87.9556 22.7315 87.8593 22.4849 87.7929C22.2383 87.7264 21.9487 87.6937 21.6158 87.6937L16.9899 87.6937L16.9899 87.2381L21.606 87.2381Z" fill="#292929"/>
<path fill-rule="evenodd" clip-rule="evenodd" d="M23.5593 70.2452C23.5593 69.9444 23.5015 69.676 23.3854 69.4384C23.2698 69.2012 23.1089 69.0001 22.9033 68.835C22.6977 68.6703 22.4553 68.5441 22.1765 68.4571C21.8977 68.3705 21.5965 68.3266 21.2734 68.3266L16.9897 68.3266L16.9897 67.8761L21.2734 67.8761C21.6552 67.8761 22.0119 67.9304 22.3429 68.0394C22.6744 68.1488 22.963 68.3055 23.2096 68.5104C23.4558 68.7152 23.6493 68.9641 23.7896 69.2573C23.9295 69.5506 23.9999 69.8799 23.9999 70.2452C23.9999 70.6105 23.9295 70.9398 23.7896 71.233C23.6493 71.5263 23.4558 71.7751 23.2096 71.98C22.963 72.1849 22.6744 72.3416 22.3429 72.4506C22.0119 72.56 21.6552 72.6143 21.2734 72.6143L16.9897 72.6143L16.9897 72.1592L21.2683 72.1592C21.5914 72.1592 21.8925 72.1157 22.1713 72.0287C22.4506 71.9417 22.693 71.8163 22.8987 71.6531C23.1038 71.4894 23.2656 71.2892 23.3831 71.052C23.5006 70.8144 23.5593 70.5459 23.5593 70.2452Z" fill="#292929"/>
<path fill-rule="evenodd" clip-rule="evenodd" d="M20.4115 55.1349L20.4115 54.0474C20.4115 53.7705 20.3747 53.5222 20.3015 53.3028C20.2278 53.0834 20.1225 52.8977 19.9854 52.7457C19.8483 52.5942 19.6838 52.4787 19.4912 52.3987C19.2986 52.3192 19.0814 52.2799 18.8399 52.2799C18.3475 52.2799 17.982 52.4253 17.7433 52.7172C17.5055 53.0091 17.3862 53.4333 17.3862 53.9899L17.3862 55.1349L20.4115 55.1349ZM20.7836 55.135L23.9167 55.135L23.9167 55.5859L16.9899 55.5859L16.9899 53.99C16.9899 53.2683 17.1438 52.729 17.4524 52.3726C17.7606 52.0162 18.2138 51.8375 18.8105 51.8375C19.0754 51.8375 19.3169 51.8792 19.5355 51.9615C19.7542 52.0443 19.9458 52.1626 20.1104 52.3174C20.2754 52.4722 20.4111 52.6584 20.5169 52.8764C20.6232 53.0943 20.6922 53.3408 20.7249 53.6144C20.7738 53.5438 20.8391 53.4802 20.9207 53.4245L23.9167 51.272L23.9167 51.6654C23.9167 51.7126 23.9069 51.7533 23.8873 51.787C23.8677 51.8207 23.8351 51.8539 23.7894 51.8862L20.9794 53.8885C20.9076 53.9386 20.8573 53.9924 20.8279 54.0499C20.7985 54.1074 20.7836 54.1968 20.7836 54.3174L20.7836 55.135Z" fill="#292929"/>
<path fill-rule="evenodd" clip-rule="evenodd" d="M20.1864 38.2967L20.1864 37.9253C20.1864 37.8692 20.184 37.821 20.1789 37.7798C20.1742 37.7382 20.1644 37.7008 20.1495 37.6666C20.1351 37.633 20.1164 37.6011 20.0931 37.5717C20.0703 37.5422 20.0409 37.5113 20.005 37.4791L17.1316 34.9552C17.0794 34.9079 17.0426 34.8644 17.0216 34.8247C17.0006 34.7849 16.9899 34.7358 16.9899 34.6764L16.9899 34.3097L20.0982 37.0413C20.1635 37.0974 20.2143 37.147 20.2502 37.1895C20.2857 37.2321 20.315 37.2803 20.3383 37.3331C20.3579 37.2714 20.3878 37.2157 20.4288 37.1671C20.4694 37.1184 20.5225 37.0693 20.5878 37.0193L23.9166 34.1371L23.9166 34.5043C23.9166 34.581 23.9045 34.6353 23.8798 34.668C23.8556 34.7003 23.8234 34.7339 23.7842 34.7695L20.7887 37.4173C20.7524 37.4496 20.7216 37.4791 20.6955 37.5057C20.6694 37.5319 20.6474 37.5623 20.6293 37.596C20.6116 37.6301 20.5985 37.6708 20.5901 37.7176C20.5822 37.7649 20.578 37.8238 20.578 37.8944L20.578 38.2967L23.9166 38.2967L23.9166 38.7476L16.9801 38.7476L16.9801 38.2967L20.1864 38.2967Z" fill="#292929"/>
<path fill-rule="evenodd" clip-rule="evenodd" d="M21.4005 21.5202L21.4005 18.718L17.9005 19.9954C17.8451 20.016 17.7821 20.0366 17.7117 20.0571C17.6418 20.0777 17.5672 20.0983 17.4889 20.1189C17.5672 20.1395 17.6418 20.1605 17.7117 20.1811C17.7821 20.2017 17.8465 20.2222 17.9052 20.2428L21.4005 21.5202ZM23.9167 17.3345L23.9167 17.6834C23.9167 17.7251 23.9046 17.7588 23.8798 17.7854C23.8556 17.8116 23.8234 17.8327 23.7843 17.8472L21.7725 18.5852L21.7725 21.6573L23.7843 22.3912C23.8202 22.4029 23.8514 22.4234 23.8775 22.4529C23.9036 22.4824 23.9167 22.5179 23.9167 22.5591L23.9167 22.9038L16.9899 20.3444L16.9899 19.8935L23.9167 17.3345Z" fill="#292929"/>
<path fill-rule="evenodd" clip-rule="evenodd" d="M20.4115 4.62014L20.4115 3.53266C20.4115 3.25577 20.3747 3.0074 20.3015 2.78803C20.2278 2.56867 20.1225 2.38298 19.9854 2.23096C19.8483 2.07942 19.6838 1.96389 19.4912 1.88391C19.2986 1.80439 19.0814 1.7651 18.8399 1.7651C18.3475 1.7651 17.982 1.91057 17.7433 2.20243C17.5055 2.4943 17.3862 2.91853 17.3862 3.47513L17.3862 4.62014L20.4115 4.62014ZM20.7836 4.61991L23.9167 4.61991L23.9167 5.0708L16.9899 5.0708L16.9899 3.4749C16.9899 2.75319 17.1438 2.21389 17.4524 1.85748C17.7606 1.50107 18.2138 1.32239 18.8105 1.32239C19.0754 1.32239 19.3169 1.36402 19.5355 1.44634C19.7542 1.52913 19.9458 1.64747 20.1104 1.80229C20.2754 1.95711 20.4111 2.14326 20.5169 2.36123C20.6232 2.57919 20.6922 2.82569 20.7249 3.09931C20.7738 3.02868 20.8391 2.96507 20.9207 2.90941L23.9167 0.756906L23.9167 1.15027C23.9167 1.19751 23.9069 1.2382 23.8873 1.27188C23.8677 1.30556 23.8351 1.33876 23.7894 1.37104L20.9794 3.3734C20.9076 3.42345 20.8573 3.47724 20.8279 3.53477C20.7985 3.5923 20.7836 3.68164 20.7836 3.80231L20.7836 4.61991Z" fill="#292929"/>
</g>
</svg>
