<?xml version="1.0" encoding="utf-8"?>
<!-- Generator: Adobe Illustrator 26.0.3, SVG Export Plug-In . SVG Version: 6.00 Build 0)  -->
<svg version="1.1" id="Layer_1" xmlns="http://www.w3.org/2000/svg" xmlns:xlink="http://www.w3.org/1999/xlink" x="0px" y="0px"
	 viewBox="0 0 24 124" style="enable-background:new 0 0 24 124;" xml:space="preserve">
<style type="text/css">
	.st0{fill-rule:evenodd;clip-rule:evenodd;fill:#FFFFFF;filter:url(#Adobe_OpacityMaskFilter);}
	.st1{mask:url(#mask0_260_938_00000077318550258788096960000013389470315196958115_);}
	.st2{fill-rule:evenodd;clip-rule:evenodd;fill:#292929;}
	
		.st3{fill-rule:evenodd;clip-rule:evenodd;fill:#FFFFFF;filter:url(#Adobe_OpacityMaskFilter_00000049217819544757226720000013685487488936350633_);}
	.st4{mask:url(#mask1_260_938_00000038406614104748086980000004055660064560071605_);}
	
		.st5{fill-rule:evenodd;clip-rule:evenodd;fill:#FFFFFF;filter:url(#Adobe_OpacityMaskFilter_00000173864629051107118040000012020125487372513461_);}
	.st6{mask:url(#mask2_260_938_00000168086686020618024740000006976841399245098136_);}
</style>
<defs>
	<filter id="Adobe_OpacityMaskFilter" filterUnits="userSpaceOnUse" x="16.9" y="0.8" width="7.1" height="6.5">
		<feColorMatrix  type="matrix" values="1 0 0 0 0  0 1 0 0 0  0 0 1 0 0  0 0 0 1 0"/>
	</filter>
</defs>
<mask maskUnits="userSpaceOnUse" x="16.9" y="0.8" width="7.1" height="6.5" id="mask0_260_938_00000077318550258788096960000013389470315196958115_">
	<path class="st0" d="M24,0.8v6.5h-7.1V0.8H24z"/>
</mask>
<g class="st1">
	<path class="st2" d="M24,0.8V2c0,0.1,0,0.2-0.1,0.3c-0.1,0.1-0.2,0.1-0.3,0.2l-3.8,1.2c-0.2,0.1-0.3,0.1-0.5,0.2
		C19.1,3.9,18.9,4,18.7,4c0.2,0,0.4,0.1,0.6,0.1c0.2,0.1,0.4,0.1,0.5,0.2l3.8,1.2c0.1,0,0.2,0.1,0.2,0.2C24,5.8,24,5.9,24,6.1v1.2
		l-7.1-2.6V3.3L24,0.8z"/>
</g>
<defs>
	
		<filter id="Adobe_OpacityMaskFilter_00000000195574753661313130000001340226094029086387_" filterUnits="userSpaceOnUse" x="16.9" y="18" width="7.1" height="6.5">
		<feColorMatrix  type="matrix" values="1 0 0 0 0  0 1 0 0 0  0 0 1 0 0  0 0 0 1 0"/>
	</filter>
</defs>
<mask maskUnits="userSpaceOnUse" x="16.9" y="18" width="7.1" height="6.5" id="mask1_260_938_00000038406614104748086980000004055660064560071605_">
	
		<path style="fill-rule:evenodd;clip-rule:evenodd;fill:#FFFFFF;filter:url(#Adobe_OpacityMaskFilter_00000000195574753661313130000001340226094029086387_);" d="
		M24,18v6.5h-7.1V18H24z"/>
</mask>
<g class="st4">
	<path class="st2" d="M19.6,20.4v1.8l2-0.6c0.1,0,0.3-0.1,0.4-0.1c0.2-0.1,0.4-0.1,0.5-0.2c-0.2,0-0.4-0.1-0.6-0.1
		c-0.2-0.1-0.3-0.1-0.4-0.1L19.6,20.4z M16.9,24.6v-1.2c0-0.1,0-0.2,0.1-0.3c0.1-0.1,0.2-0.1,0.3-0.2l1.2-0.4v-2.4l-1.2-0.4
		c-0.1,0-0.2-0.1-0.2-0.2c-0.1-0.1-0.1-0.2-0.1-0.3V18l7.1,2.5v1.5L16.9,24.6z"/>
</g>
<defs>
	
		<filter id="Adobe_OpacityMaskFilter_00000170259901693116833600000005542296456696996247_" filterUnits="userSpaceOnUse" x="0" y="1.8" width="24" height="122.2">
		<feColorMatrix  type="matrix" values="1 0 0 0 0  0 1 0 0 0  0 0 1 0 0  0 0 0 1 0"/>
	</filter>
</defs>
<mask maskUnits="userSpaceOnUse" x="0" y="1.8" width="24" height="122.2" id="mask2_260_938_00000168086686020618024740000006976841399245098136_">
	
		<path style="fill-rule:evenodd;clip-rule:evenodd;fill:#FFFFFF;filter:url(#Adobe_OpacityMaskFilter_00000170259901693116833600000005542296456696996247_);" d="
		M0,0.8V124h24L24,0.8H0z"/>
</mask>
<g class="st6">
	<path class="st2" d="M16.9,35.1v1.5H24v-1.5H16.9z"/>
	<path class="st2" d="M23,55.2c-0.1,0-0.1-0.1-0.1-0.1c0,0,0-0.1,0.1-0.1c0.1-0.1,0.1-0.1,0.2-0.2c0.1-0.1,0.1-0.2,0.2-0.4
		c0.1-0.2,0.1-0.3,0.1-0.6c0-0.2,0-0.4-0.1-0.6c-0.1-0.2-0.2-0.3-0.3-0.4c-0.1-0.1-0.3-0.2-0.4-0.3c-0.2-0.1-0.3-0.1-0.5-0.1
		c-0.2,0-0.4,0-0.6,0.1c-0.2,0.1-0.3,0.2-0.4,0.4c-0.1,0.1-0.2,0.3-0.3,0.5c-0.1,0.2-0.1,0.4-0.2,0.6c-0.1,0.2-0.2,0.4-0.2,0.6
		c-0.1,0.2-0.2,0.4-0.3,0.5c-0.1,0.1-0.3,0.3-0.5,0.4c-0.2,0.1-0.4,0.1-0.7,0.1c-0.3,0-0.6,0-0.8-0.1c-0.3-0.1-0.5-0.2-0.7-0.4
		c-0.2-0.2-0.3-0.4-0.4-0.6c-0.1-0.2-0.2-0.5-0.2-0.8c0-0.4,0.1-0.8,0.2-1.1c0.2-0.3,0.4-0.6,0.7-0.8l0.2,0.1c0,0,0.1,0.1,0.1,0.1
		c0,0,0,0.1-0.1,0.1c0,0-0.1,0.1-0.1,0.2c-0.1,0.1-0.1,0.1-0.2,0.2c-0.1,0.1-0.1,0.2-0.2,0.3c-0.1,0.1-0.1,0.2-0.1,0.4
		c0,0.1-0.1,0.3-0.1,0.5c0,0.2,0,0.5,0.1,0.7c0.1,0.2,0.2,0.4,0.3,0.5c0.1,0.1,0.3,0.2,0.5,0.3c0.2,0.1,0.4,0.1,0.6,0.1
		c0.2,0,0.4,0,0.6-0.1c0.2-0.1,0.3-0.2,0.4-0.4c0.1-0.1,0.2-0.3,0.3-0.5c0.1-0.2,0.1-0.4,0.2-0.6c0.1-0.2,0.1-0.4,0.2-0.6
		c0.1-0.2,0.2-0.4,0.3-0.5c0.1-0.1,0.3-0.3,0.5-0.4c0.2-0.1,0.4-0.1,0.7-0.1c0.2,0,0.5,0,0.7,0.1c0.2,0.1,0.4,0.2,0.6,0.3
		c0.2,0.2,0.3,0.3,0.4,0.6c0.1,0.2,0.1,0.5,0.1,0.8c0,0.3-0.1,0.6-0.2,0.9c-0.1,0.3-0.3,0.5-0.5,0.7L23,55.2z"/>
	<path class="st2" d="M16.9,73.9v-0.5h3.3v-3.9h-3.3V69h6.9v0.5h-3.2v3.9h3.2v0.5H16.9z"/>
	<path class="st2" d="M19.4,86.4v2.8l3.5-1.3c0.1,0,0.1,0,0.2-0.1c0.1,0,0.1,0,0.2-0.1c-0.1,0-0.2,0-0.2-0.1c-0.1,0-0.1,0-0.2-0.1
		L19.4,86.4z M16.9,90.6v-0.3c0,0,0-0.1,0-0.1c0,0,0.1,0,0.1-0.1l2-0.7v-3.1l-2-0.7c0,0-0.1,0-0.1-0.1s0-0.1,0-0.1V85l6.9,2.6V88
		L16.9,90.6z"/>
	<path class="st2" d="M17.3,103.2v3h-0.4v-3.4h6.9v0.5H17.3z"/>
	<path class="st2" d="M16.9,119.7v0.5h6.9v-0.5H16.9z"/>
	<path class="st2" d="M3.6,2.3v1.1c0,0.3,0,0.5,0.1,0.7C3.8,4.3,3.9,4.5,4,4.7C4.2,4.8,4.3,4.9,4.5,5c0.2,0.1,0.4,0.1,0.7,0.1
		C5.7,5.1,6,5,6.3,4.7C6.5,4.4,6.6,4,6.6,3.4V2.3H3.6z M3.2,2.3H0.1V1.8H7v1.6C7,4.1,6.9,4.7,6.5,5C6.2,5.4,5.8,5.6,5.2,5.6
		c-0.3,0-0.5,0-0.7-0.1C4.2,5.4,4.1,5.2,3.9,5.1C3.7,4.9,3.6,4.7,3.5,4.5C3.4,4.3,3.3,4.1,3.3,3.8c0,0.1-0.1,0.1-0.2,0.2l-3,2.2V5.7
		c0,0,0-0.1,0-0.1c0,0,0.1-0.1,0.1-0.1l2.8-2c0.1-0.1,0.1-0.1,0.2-0.2c0-0.1,0-0.1,0-0.3V2.3z"/>
	<path class="st2" d="M2.6,19.5v2.8L6.1,21c0.1,0,0.1,0,0.2-0.1c0.1,0,0.1,0,0.2-0.1c-0.1,0-0.2,0-0.2-0.1c-0.1,0-0.1,0-0.2-0.1
		L2.6,19.5z M0.1,23.7v-0.3c0,0,0-0.1,0-0.1c0,0,0.1,0,0.1-0.1l2-0.7v-3.1l-2-0.7c0,0-0.1,0-0.1-0.1c0,0,0-0.1,0-0.1v-0.3L7,20.7
		v0.5L0.1,23.7z"/>
	<path class="st2" d="M2.4,37.5c-0.4,0-0.7,0-1-0.1S0.8,37.2,0.6,37c-0.2-0.2-0.4-0.4-0.5-0.6C0.1,36.2,0,35.9,0,35.6
		c0-0.1,0-0.3,0-0.4c0-0.1,0.1-0.3,0.1-0.4c0,0,0.1,0,0.1,0c0,0,0.1,0,0.1,0c0,0,0.1,0,0.1,0c0,0,0,0,0,0.1c0,0,0,0.1,0,0.1
		c0,0,0,0.1,0,0.1c0,0.1,0,0.1,0,0.2c0,0.1,0,0.1,0,0.2c0,0.2,0,0.4,0.1,0.6c0.1,0.2,0.2,0.3,0.4,0.5c0.2,0.1,0.4,0.2,0.6,0.3
		c0.2,0.1,0.5,0.1,0.9,0.1H7v0.5H2.4z"/>
	<path class="st2" d="M0.4,54.5c0,0.3,0.1,0.6,0.2,0.8c0.1,0.2,0.3,0.4,0.5,0.6c0.2,0.2,0.4,0.3,0.7,0.4c0.3,0.1,0.6,0.1,0.9,0.1H7
		v0.5H2.7c-0.4,0-0.7-0.1-1.1-0.2c-0.3-0.1-0.6-0.3-0.9-0.5c-0.2-0.2-0.4-0.5-0.6-0.7c-0.1-0.3-0.2-0.6-0.2-1c0-0.4,0.1-0.7,0.2-1
		c0.1-0.3,0.3-0.5,0.6-0.7c0.2-0.2,0.5-0.4,0.9-0.5c0.3-0.1,0.7-0.2,1.1-0.2H7v0.5H2.7c-0.3,0-0.6,0-0.9,0.1
		c-0.3,0.1-0.5,0.2-0.7,0.4c-0.2,0.2-0.4,0.4-0.5,0.6C0.5,53.9,0.4,54.2,0.4,54.5z"/>
	<path class="st2" d="M3.6,69.6v1.1c0,0.3,0,0.5,0.1,0.7C3.8,71.7,3.9,71.9,4,72c0.1,0.2,0.3,0.3,0.5,0.3c0.2,0.1,0.4,0.1,0.7,0.1
		c0.5,0,0.9-0.1,1.1-0.4c0.2-0.3,0.4-0.7,0.4-1.3v-1.1H3.6z M3.2,69.6H0.1v-0.5H7v1.6c0,0.7-0.2,1.3-0.5,1.6
		c-0.3,0.4-0.8,0.5-1.4,0.5c-0.3,0-0.5,0-0.7-0.1c-0.2-0.1-0.4-0.2-0.6-0.4c-0.2-0.2-0.3-0.3-0.4-0.6c-0.1-0.2-0.2-0.5-0.2-0.7
		c0,0.1-0.1,0.1-0.2,0.2l-3,2.2v-0.4c0,0,0-0.1,0-0.1c0,0,0.1-0.1,0.1-0.1l2.8-2c0.1-0.1,0.1-0.1,0.2-0.2c0-0.1,0-0.1,0-0.3V69.6z"
		/>
	<path class="st2" d="M3.8,86.5v0.4c0,0.1,0,0.1,0,0.1c0,0,0,0.1,0,0.1c0,0,0,0.1,0.1,0.1c0,0,0.1,0.1,0.1,0.1l2.9,2.5
		c0.1,0,0.1,0.1,0.1,0.1c0,0,0,0.1,0,0.1v0.4l-3.1-2.7c-0.1-0.1-0.1-0.1-0.2-0.1c0,0-0.1-0.1-0.1-0.1c0,0.1,0,0.1-0.1,0.2
		c0,0-0.1,0.1-0.2,0.1l-3.3,2.9v-0.4c0-0.1,0-0.1,0-0.2c0,0,0.1-0.1,0.1-0.1l3-2.6c0,0,0.1-0.1,0.1-0.1c0,0,0-0.1,0.1-0.1
		c0,0,0-0.1,0-0.1c0,0,0-0.1,0-0.2v-0.4H0.1V86H7v0.5H3.8z"/>
	<path class="st2" d="M2.6,103.2v2.8l3.5-1.3c0.1,0,0.1,0,0.2-0.1c0.1,0,0.1,0,0.2-0.1c-0.1,0-0.2,0-0.2-0.1c-0.1,0-0.1,0-0.2-0.1
		L2.6,103.2z M0.1,107.4v-0.3c0,0,0-0.1,0-0.1c0,0,0.1,0,0.1-0.1l2-0.7v-3.1l-2-0.7c0,0-0.1,0-0.1-0.1c0,0,0-0.1,0-0.1v-0.3l6.9,2.6
		v0.5L0.1,107.4z"/>
	<path class="st2" d="M3.6,120.1v1.1c0,0.3,0,0.5,0.1,0.7c0.1,0.2,0.2,0.4,0.3,0.6c0.1,0.2,0.3,0.3,0.5,0.3c0.2,0.1,0.4,0.1,0.7,0.1
		c0.5,0,0.9-0.1,1.1-0.4c0.2-0.3,0.4-0.7,0.4-1.3v-1.1H3.6z M3.2,120.1H0.1v-0.5H7v1.6c0,0.7-0.2,1.3-0.5,1.6
		c-0.3,0.4-0.8,0.5-1.4,0.5c-0.3,0-0.5,0-0.7-0.1c-0.2-0.1-0.4-0.2-0.6-0.4c-0.2-0.2-0.3-0.3-0.4-0.6c-0.1-0.2-0.2-0.5-0.2-0.7
		c0,0.1-0.1,0.1-0.2,0.2l-3,2.2v-0.4c0,0,0-0.1,0-0.1c0,0,0.1-0.1,0.1-0.1l2.8-2c0.1-0.1,0.1-0.1,0.2-0.2c0-0.1,0-0.1,0-0.3V120.1z"
		/>
</g>
</svg>
