<svg xmlns="http://www.w3.org/2000/svg" viewBox="0 0 51.48 263.49"><g id="Layer_2" data-name="Layer 2"><g id="Layer_1-2" data-name="Layer 1"><path d="M51.48,0V2.57a1.06,1.06,0,0,1-.21.68,1.17,1.17,0,0,1-.56.38L42.52,6.29l-1.17.37c-.41.12-.86.24-1.32.34.46.09.91.19,1.32.31l1.17.34,8.19,2.65a1.17,1.17,0,0,1,.53.37,1,1,0,0,1,.24.67v2.59L36.18,8.41V5.52Z"/><path d="M36.18,50.89V48.42a1.09,1.09,0,0,1,.21-.69,1.13,1.13,0,0,1,.56-.37l2.66-.81V41.31L37,40.5a1.12,1.12,0,0,1-.53-.37,1,1,0,0,1-.24-.67V37l15.3,5.33v3.27ZM42,42.05v3.76l4.19-1.27.94-.29c.36-.11.75-.21,1.17-.32-.43-.1-.83-.21-1.19-.31s-.68-.21-.94-.31Z"/><path d="M36.18,76.63V73.42h15.3v3.21Z"/><path d="M49.23,116.46a.27.27,0,0,1-.18-.25.56.56,0,0,1,.2-.32,4.4,4.4,0,0,0,.43-.52,4.25,4.25,0,0,0,.43-.83,3.17,3.17,0,0,0,.2-1.23,3.36,3.36,0,0,0-.23-1.28,2.55,2.55,0,0,0-.63-.93,2.74,2.74,0,0,0-.92-.57,3.17,3.17,0,0,0-1.11-.2,2.49,2.49,0,0,0-1.25.29,3,3,0,0,0-.84.76,5,5,0,0,0-.58,1.08c-.16.4-.31.81-.47,1.23s-.32.84-.5,1.24a4.4,4.4,0,0,1-.7,1.07,3.08,3.08,0,0,1-1,.76,3.47,3.47,0,0,1-1.52.29,5.08,5.08,0,0,1-1.76-.29,4.28,4.28,0,0,1-1.44-.83,4.1,4.1,0,0,1-1-1.34,4.54,4.54,0,0,1-.35-1.82,4.68,4.68,0,0,1,.52-2.28A5.62,5.62,0,0,1,38,108.82l.47.27a.31.31,0,0,1,.15.26.37.37,0,0,1-.12.22l-.31.32c-.13.13-.26.28-.4.45a3.48,3.48,0,0,0-.4.62,3.92,3.92,0,0,0-.31.8,4.11,4.11,0,0,0-.13,1,3.56,3.56,0,0,0,.27,1.42,3.14,3.14,0,0,0,.73,1,3.05,3.05,0,0,0,1.1.66,4,4,0,0,0,1.36.23,2.42,2.42,0,0,0,2.14-1.06,4.74,4.74,0,0,0,.58-1.07q.22-.6.45-1.23c.15-.43.31-.84.49-1.24a4.12,4.12,0,0,1,.7-1.07,3.06,3.06,0,0,1,1.06-.76,3.71,3.71,0,0,1,1.59-.29,4.12,4.12,0,0,1,1.44.25,3.56,3.56,0,0,1,1.22.75,3.47,3.47,0,0,1,.85,1.22,3.92,3.92,0,0,1,.32,1.65,4.69,4.69,0,0,1-.36,1.87,4.44,4.44,0,0,1-1.13,1.5Z"/><path d="M36.18,156.3v-1H43.3V147H36.18v-1H51v1H44.11v8.37H51v1Z"/><path d="M36.18,192.05v-.75a.33.33,0,0,1,.08-.22.58.58,0,0,1,.2-.13l4.32-1.58v-6.56l-4.32-1.57a.52.52,0,0,1-.2-.14.33.33,0,0,1-.08-.22v-.74L51,185.61v1Zm5.4-9v6l7.5-2.73.41-.13.48-.14-.48-.13-.42-.13Z"/><path d="M37.09,219v6.34h-.91V218H51v1Z"/><path d="M36.18,255.31v-1H51v1Z"/><path d="M6.9,3.23H.18v-1H15V5.68a5.12,5.12,0,0,1-1,3.46,3.65,3.65,0,0,1-2.91,1.14A4.46,4.46,0,0,1,9.58,10a3.84,3.84,0,0,1-1.24-.76,4.12,4.12,0,0,1-.87-1.2A4.85,4.85,0,0,1,7,6.48a1.5,1.5,0,0,1-.42.41L.18,11.49v-.84a.53.53,0,0,1,.06-.26.69.69,0,0,1,.21-.21l6-4.28a1,1,0,0,0,.32-.35A1.19,1.19,0,0,0,6.9,5Zm.8,0V5.56a5.21,5.21,0,0,0,.23,1.59,3.37,3.37,0,0,0,.68,1.19,2.94,2.94,0,0,0,1.06.74,3.64,3.64,0,0,0,1.4.26,2.88,2.88,0,0,0,2.35-.94,4.2,4.2,0,0,0,.77-2.72V3.23Z"/><path d="M.18,49v-.74A.33.33,0,0,1,.26,48a.46.46,0,0,1,.2-.13l4.32-1.58V39.75L.46,38.18a.49.49,0,0,1-.2-.13.36.36,0,0,1-.08-.23v-.73L15,42.56v1Zm5.4-9v6l7.5-2.74.41-.13L14,43l-.48-.13-.42-.13Z"/><path d="M5.13,78.6a8.11,8.11,0,0,1-2.2-.28,4.67,4.67,0,0,1-1.61-.8,3.31,3.31,0,0,1-1-1.25A4.08,4.08,0,0,1,0,74.6a6.36,6.36,0,0,1,.07-.86,5.48,5.48,0,0,1,.24-.9l.29,0,.29,0a.33.33,0,0,1,.17.07c.05,0,.07.09.07.18a.88.88,0,0,1,0,.21,2.55,2.55,0,0,0-.08.28c0,.11-.05.24-.08.38a3.34,3.34,0,0,0,0,.49,3.21,3.21,0,0,0,.26,1.3,2.42,2.42,0,0,0,.77,1,3.55,3.55,0,0,0,1.31.62,7.33,7.33,0,0,0,1.86.21H15v1Z"/><path d="M1,114.93a3.84,3.84,0,0,0,.37,1.72,3.7,3.7,0,0,0,1,1.29,4.81,4.81,0,0,0,1.56.81,6.41,6.41,0,0,0,1.94.28H15v1H5.85a7.15,7.15,0,0,1-2.3-.35,5.58,5.58,0,0,1-1.85-1A4.66,4.66,0,0,1,.45,117a5.2,5.2,0,0,1,0-4.23,4.72,4.72,0,0,1,1.25-1.59,5.43,5.43,0,0,1,1.85-1,7.44,7.44,0,0,1,2.3-.35H15v1H5.86a6.74,6.74,0,0,0-1.94.28,4.81,4.81,0,0,0-1.56.81,3.81,3.81,0,0,0-1,1.28A3.86,3.86,0,0,0,1,114.93Z"/><path d="M6.9,147.23H.18v-1H15v3.41a5.12,5.12,0,0,1-1,3.46,3.65,3.65,0,0,1-2.91,1.14A4.46,4.46,0,0,1,9.58,154a3.84,3.84,0,0,1-1.24-.76,4.12,4.12,0,0,1-.87-1.2A4.85,4.85,0,0,1,7,150.48a1.5,1.5,0,0,1-.42.41l-6.42,4.6v-.84a.53.53,0,0,1,.06-.26.69.69,0,0,1,.21-.21l6-4.28a1,1,0,0,0,.32-.35,1.19,1.19,0,0,0,.1-.57Zm.8,0v2.33a5.21,5.21,0,0,0,.23,1.59,3.37,3.37,0,0,0,.68,1.19,2.94,2.94,0,0,0,1.06.74,3.64,3.64,0,0,0,1.4.26,2.88,2.88,0,0,0,2.35-.94,4.2,4.2,0,0,0,.77-2.72v-2.45Z"/><path d="M8.18,183.23v.8a2.69,2.69,0,0,0,0,.31.84.84,0,0,0,.06.24.82.82,0,0,0,.12.2,1.7,1.7,0,0,0,.19.2l6.16,5.4a1.37,1.37,0,0,1,.24.27A.79.79,0,0,1,15,191v.79l-6.67-5.84A3.45,3.45,0,0,1,8,185.6a1.35,1.35,0,0,1-.19-.31,1,1,0,0,1-.19.36,2.09,2.09,0,0,1-.34.31L.18,192.12v-.78A.62.62,0,0,1,.26,191a1.9,1.9,0,0,1,.2-.22l6.43-5.66.2-.19a.94.94,0,0,0,.14-.19.66.66,0,0,0,.08-.26,2,2,0,0,0,0-.38v-.86H.18v-1H15.06v1Z"/><path d="M.18,228.05v-.75a.33.33,0,0,1,.08-.22.58.58,0,0,1,.2-.13l4.32-1.58v-6.56L.46,217.24a.52.52,0,0,1-.2-.14.33.33,0,0,1-.08-.22v-.74L15,221.61v1Zm5.4-9v6l7.5-2.73.41-.13.48-.14-.48-.13-.42-.13Z"/><path d="M6.9,255.23H.18v-1H15v3.41a5.12,5.12,0,0,1-1,3.46,3.65,3.65,0,0,1-2.91,1.14A4.46,4.46,0,0,1,9.58,262a3.84,3.84,0,0,1-1.24-.76,4.25,4.25,0,0,1-.87-1.2A4.85,4.85,0,0,1,7,258.48a1.5,1.5,0,0,1-.42.41l-6.42,4.6v-.84a.53.53,0,0,1,.06-.26.69.69,0,0,1,.21-.21l6-4.28a1,1,0,0,0,.32-.35,1.19,1.19,0,0,0,.1-.57Zm.8,0v2.33a5.21,5.21,0,0,0,.23,1.59,3.47,3.47,0,0,0,.68,1.19,2.94,2.94,0,0,0,1.06.74,3.64,3.64,0,0,0,1.4.26,2.88,2.88,0,0,0,2.35-.94,4.2,4.2,0,0,0,.77-2.72v-2.45Z"/></g></g></svg>